# xmcd
#
# Track frame offsets: 
#        150
#        16985
#        32806
#        50137
#        67803
#        80725
#        96321
#        115202
#        128288
#        143027
#
# Disc length: 2166 seconds
#
# Revision: 0
# Processed by: cddbd v1.5.2PL0 Copyright (c) Steve Scherf et al.
# Submitted via: ExactAudioCopyFreeDBPlugin 1.0
#
DISCID=8108740a
DTITLE=Transistordale - Transistordale
DYEAR=2010
DGENRE=Outlaw Country
TTITLE0=Fat Girl
TTITLE1=Before She Did Me Wrong
TTITLE2=Games People Play
TTITLE3=Rain On Me
TTITLE4=Man In My Dumpster
TTITLE5=Reynosa
TTITLE6=Right Wrong Guy
TTITLE7=Bustin' Out
TTITLE8=Get to Me
TTITLE9=I Only Want to Be With You
EXTD=
EXTT0=
EXTT1=
EXTT2=
EXTT3=
EXTT4=
EXTT5=
EXTT6=
EXTT7=
EXTT8=
EXTT9=
PLAYORDER=
